<?xml version="1.0" standalone="no"?>
<!DOCTYPE svg PUBLIC "-//W3C//DTD SVG 20010904//EN"
 "http://www.w3.org/TR/2001/REC-SVG-20010904/DTD/svg10.dtd">
<svg version="1.0" xmlns="http://www.w3.org/2000/svg"
 width="266.000000pt" height="140.000000pt" viewBox="0 0 266.000000 140.000000"
 preserveAspectRatio="xMidYMid meet">

<g transform="translate(0.000000,140.000000) scale(0.100000,-0.100000)"
fill="#000000" stroke="none">
<path d="M520 1078 c1 -7 8 -62 18 -123 l17 -110 47 -1 c26 0 51 -4 55 -8 13
-13 6 -132 -9 -163 -16 -34 -66 -43 -105 -18 -13 9 -26 15 -27 13 -1 -2 -15
-25 -30 -51 -55 -97 -154 -142 -297 -135 -49 2 -89 3 -89 1 0 -2 15 -20 32
-40 18 -21 38 -47 44 -58 6 -11 41 -36 79 -55 66 -34 72 -35 179 -35 100 0
116 3 166 27 203 100 297 323 224 532 l-17 50 -13 -52 c-17 -63 -48 -127 -83
-167 l-26 -30 0 160 c0 154 -8 237 -23 233 -4 -1 -33 8 -65 20 -67 25 -77 27
-77 10z m86 -559 c-8 -67 -130 -145 -246 -155 -53 -5 -68 -3 -79 10 -16 19
-10 22 64 29 85 9 161 44 213 97 26 27 48 49 49 49 2 1 1 -13 -1 -30z m-373
-126 c-7 -2 -21 -2 -30 0 -10 3 -4 5 12 5 17 0 24 -2 18 -5z"/>
<path d="M1250 869 c0 -77 -5 -149 -10 -160 -8 -15 -21 -19 -58 -19 -57 0 -72
12 -72 57 0 32 -1 33 -40 33 l-40 0 0 -50 c0 -40 5 -56 24 -75 43 -42 191 -47
244 -8 l27 20 3 172 2 171 -40 0 -40 0 0 -141z"/>
<path d="M1407 823 c-3 -104 -2 -191 2 -196 4 -4 77 -6 162 -5 l154 3 0 30 0
30 -117 3 -118 3 0 49 0 50 110 0 110 0 0 30 0 30 -110 0 -110 0 0 50 0 50
115 0 115 0 0 30 0 30 -154 0 -153 0 -6 -187z"/>
<path d="M1797 824 c-3 -104 -2 -193 3 -197 13 -14 301 -3 332 13 45 21 68 83
67 176 -1 168 -26 187 -245 193 l-151 3 -6 -188z m293 106 c17 -17 20 -33 20
-110 0 -123 -7 -130 -135 -130 l-95 0 0 130 0 130 95 0 c82 0 98 -3 115 -20z"/>
<path d="M2254 963 c138 -195 136 -191 136 -270 l0 -73 45 0 45 0 0 78 c0 86
-2 82 99 220 34 46 61 85 61 88 0 2 -21 4 -48 4 l-47 0 -53 -80 c-28 -44 -55
-80 -60 -80 -4 0 -32 36 -61 80 l-54 80 -49 0 -48 0 34 -47z"/>
<path d="M22 693 c4 -70 11 -111 26 -145 l21 -48 97 0 c105 0 157 11 195 42
14 12 16 16 5 10 -21 -10 -109 9 -159 34 -42 22 -140 124 -160 167 -10 20 -21
37 -24 37 -3 0 -3 -44 -1 -97z"/>
<path d="M1037 504 c-17 -18 -6 -45 23 -55 17 -6 30 -15 30 -20 0 -13 -34 -11
-49 4 -10 10 -12 8 -9 -8 4 -25 59 -33 77 -12 13 17 5 47 -13 47 -7 0 -21 7
-32 16 -18 15 -17 15 14 10 24 -4 32 -2 30 7 -5 13 -60 22 -71 11z"/>
<path d="M1280 505 c0 -2 8 -18 19 -36 10 -17 16 -39 14 -50 -4 -13 0 -19 11
-19 10 0 15 8 14 23 -1 13 8 38 21 55 18 26 19 32 7 32 -8 0 -20 -9 -27 -21
l-11 -21 -14 21 c-14 19 -34 29 -34 16z"/>
<path d="M1540 491 c-8 -16 -6 -23 12 -35 12 -9 28 -16 35 -16 7 0 13 -4 13
-10 0 -13 -33 -13 -47 1 -7 7 -13 7 -17 1 -10 -16 21 -34 51 -30 20 2 29 9 31
26 3 18 -3 26 -27 35 -41 15 -40 31 1 21 29 -6 31 -5 19 10 -18 22 -58 20 -71
-3z"/>
<path d="M1780 500 c0 -5 9 -10 21 -10 19 0 21 -5 17 -45 -2 -31 1 -45 9 -45
9 0 13 16 13 45 0 33 4 45 15 45 8 0 15 5 15 10 0 6 -20 10 -45 10 -25 0 -45
-4 -45 -10z"/>
<path d="M2030 455 l0 -55 45 0 c25 0 45 5 45 10 0 6 -13 10 -30 10 -20 0 -30
5 -30 15 0 9 9 15 25 15 14 0 25 5 25 10 0 6 -11 10 -25 10 -14 0 -25 5 -25
10 0 6 14 10 30 10 17 0 30 5 30 10 0 6 -20 10 -45 10 l-45 0 0 -55z"/>
<path d="M2290 455 c0 -58 19 -79 21 -22 l1 32 9 -32 c5 -18 14 -33 19 -33 5
0 14 15 19 33 l9 32 1 -32 c2 -57 21 -36 21 23 0 47 -3 55 -17 52 -11 -2 -19
-14 -21 -31 -4 -36 -18 -34 -25 3 -4 18 -13 30 -22 30 -12 0 -15 -12 -15 -55z"/>
<path d="M2569 494 c-11 -14 -10 -19 10 -35 13 -11 29 -19 37 -19 8 0 14 -4
14 -10 0 -13 -37 -13 -45 0 -9 15 -25 2 -18 -16 4 -10 17 -14 42 -12 29 2 37
8 39 26 3 18 -3 26 -27 35 -41 15 -40 31 1 21 29 -6 31 -5 19 10 -17 21 -55
21 -72 0z"/>
</g>
</svg>
